<mxfile host="app.diagrams.net" modified="2024-03-17T08:44:23.266Z" agent="Mozilla/5.0 (X11; Linux x86_64) AppleWebKit/537.36 (KHTML, like Gecko) Chrome/122.0.0.0 Safari/537.36" etag="zU3_nTexELNz3oPcqE_h" version="24.0.7" type="github" pages="3">
  <diagram name="3 areas" id="zJqC7b9IynARBR749QTm">
    <mxGraphModel dx="1202" dy="542" grid="1" gridSize="10" guides="1" tooltips="1" connect="1" arrows="1" fold="1" page="1" pageScale="1" pageWidth="827" pageHeight="1169" math="0" shadow="0">
      <root>
        <mxCell id="0" />
        <mxCell id="1" parent="0" />
        <mxCell id="27pTSMQi8Gh_r-mLNvT4-14" value="" style="rounded=0;whiteSpace=wrap;html=1;hachureGap=4;fontFamily=Architects Daughter;fontSource=https%3A%2F%2Ffonts.googleapis.com%2Fcss%3Ffamily%3DArchitects%2BDaughter;fillColor=none;dashed=1;dashPattern=12 12;" vertex="1" parent="1">
          <mxGeometry x="37.4" y="440" width="630" height="100" as="geometry" />
        </mxCell>
        <mxCell id="0hkWVxESS4iukIDbZFaX-29" value="&lt;pre&gt;&lt;br&gt;&lt;/pre&gt;" style="html=1;verticalAlign=bottom;startArrow=oval;startFill=1;endArrow=block;startSize=8;curved=0;rounded=0;shadow=0;strokeColor=#99FFCC;align=center;fontFamily=Helvetica;fontSize=11;fontColor=default;labelBackgroundColor=default;edgeStyle=orthogonalEdgeStyle;flowAnimation=0;strokeWidth=5;" parent="1" edge="1">
          <mxGeometry x="0.0022" width="60" relative="1" as="geometry">
            <mxPoint x="127.4" y="180.00000000000074" as="sourcePoint" />
            <mxPoint x="550" y="181" as="targetPoint" />
            <mxPoint as="offset" />
          </mxGeometry>
        </mxCell>
        <mxCell id="0hkWVxESS4iukIDbZFaX-36" value="&lt;pre&gt;&lt;font style=&quot;font-size: 20px;&quot;&gt; git commit -a &lt;/font&gt;&lt;/pre&gt;" style="edgeLabel;html=1;align=center;verticalAlign=middle;resizable=0;points=[];fontFamily=Helvetica;fontSize=11;fontColor=default;labelBackgroundColor=default;" parent="0hkWVxESS4iukIDbZFaX-29" vertex="1" connectable="0">
          <mxGeometry x="0.0092" y="1" relative="1" as="geometry">
            <mxPoint as="offset" />
          </mxGeometry>
        </mxCell>
        <mxCell id="0hkWVxESS4iukIDbZFaX-25" value="&lt;pre&gt;&lt;br&gt;&lt;/pre&gt;" style="html=1;verticalAlign=bottom;startArrow=oval;startFill=1;endArrow=block;startSize=8;curved=0;rounded=0;shadow=0;strokeColor=#99FFCC;align=center;fontFamily=Helvetica;fontSize=11;fontColor=default;labelBackgroundColor=default;edgeStyle=orthogonalEdgeStyle;flowAnimation=0;strokeWidth=5;" parent="1" edge="1">
          <mxGeometry x="0.0022" width="60" relative="1" as="geometry">
            <mxPoint x="330.40000000000043" y="339.999999999998" as="sourcePoint" />
            <mxPoint x="550" y="341" as="targetPoint" />
            <mxPoint as="offset" />
          </mxGeometry>
        </mxCell>
        <mxCell id="0hkWVxESS4iukIDbZFaX-34" value="&lt;pre&gt;&lt;font style=&quot;font-size: 20px;&quot;&gt; git commit &lt;/font&gt;&lt;/pre&gt;" style="edgeLabel;html=1;align=center;verticalAlign=middle;resizable=0;points=[];fontFamily=Helvetica;fontSize=11;fontColor=default;labelBackgroundColor=default;" parent="0hkWVxESS4iukIDbZFaX-25" vertex="1" connectable="0">
          <mxGeometry x="-0.0604" y="4" relative="1" as="geometry">
            <mxPoint as="offset" />
          </mxGeometry>
        </mxCell>
        <mxCell id="0hkWVxESS4iukIDbZFaX-26" value="&lt;pre&gt;&lt;br&gt;&lt;/pre&gt;" style="html=1;verticalAlign=bottom;startArrow=oval;startFill=1;endArrow=block;startSize=8;curved=0;rounded=0;shadow=0;strokeColor=#99FFFF;align=center;fontFamily=Helvetica;fontSize=11;fontColor=default;labelBackgroundColor=default;edgeStyle=orthogonalEdgeStyle;flowAnimation=0;strokeWidth=5;" parent="1" edge="1">
          <mxGeometry x="0.0022" width="60" relative="1" as="geometry">
            <mxPoint x="127.4" y="419.9999999999989" as="sourcePoint" />
            <mxPoint x="330" y="421" as="targetPoint" />
            <mxPoint as="offset" />
          </mxGeometry>
        </mxCell>
        <mxCell id="0hkWVxESS4iukIDbZFaX-35" value="&lt;pre&gt;&lt;font style=&quot;font-size: 20px;&quot;&gt; git add &lt;/font&gt;&lt;/pre&gt;" style="edgeLabel;html=1;align=center;verticalAlign=middle;resizable=0;points=[];fontFamily=Helvetica;fontSize=11;fontColor=default;labelBackgroundColor=default;" parent="0hkWVxESS4iukIDbZFaX-26" vertex="1" connectable="0">
          <mxGeometry x="0.0071" y="1" relative="1" as="geometry">
            <mxPoint x="-1" as="offset" />
          </mxGeometry>
        </mxCell>
        <mxCell id="0hkWVxESS4iukIDbZFaX-27" value="&lt;pre&gt;&lt;br&gt;&lt;/pre&gt;" style="html=1;verticalAlign=bottom;startArrow=oval;startFill=1;endArrow=block;startSize=8;curved=0;rounded=0;shadow=0;strokeColor=#FFFF99;align=center;fontFamily=Helvetica;fontSize=11;fontColor=default;labelBackgroundColor=default;edgeStyle=orthogonalEdgeStyle;flowAnimation=0;strokeWidth=5;" parent="1" edge="1">
          <mxGeometry x="0.0022" width="60" relative="1" as="geometry">
            <mxPoint x="546.4" y="260.0000000000012" as="sourcePoint" />
            <mxPoint x="770" y="261" as="targetPoint" />
            <mxPoint as="offset" />
          </mxGeometry>
        </mxCell>
        <mxCell id="0hkWVxESS4iukIDbZFaX-31" value="&lt;pre&gt;&lt;font style=&quot;font-size: 20px;&quot;&gt; git push &lt;/font&gt;&lt;/pre&gt;" style="edgeLabel;html=1;align=center;verticalAlign=middle;resizable=0;points=[];fontFamily=Helvetica;fontSize=11;fontColor=default;labelBackgroundColor=default;" parent="0hkWVxESS4iukIDbZFaX-27" vertex="1" connectable="0">
          <mxGeometry x="0.0306" y="1" relative="1" as="geometry">
            <mxPoint as="offset" />
          </mxGeometry>
        </mxCell>
        <mxCell id="0hkWVxESS4iukIDbZFaX-37" value="&lt;pre&gt;&lt;br&gt;&lt;/pre&gt;" style="html=1;verticalAlign=bottom;startArrow=oval;startFill=1;endArrow=block;startSize=8;curved=0;rounded=0;shadow=0;strokeColor=#808080;align=center;fontFamily=Helvetica;fontSize=11;fontColor=default;labelBackgroundColor=default;edgeStyle=orthogonalEdgeStyle;flowAnimation=0;strokeWidth=5;" parent="1" edge="1">
          <mxGeometry x="0.0022" width="60" relative="1" as="geometry">
            <mxPoint x="760" y="580" as="sourcePoint" />
            <mxPoint x="117.4" y="580" as="targetPoint" />
            <mxPoint as="offset" />
          </mxGeometry>
        </mxCell>
        <mxCell id="0hkWVxESS4iukIDbZFaX-38" value="&lt;pre&gt;&lt;font style=&quot;font-size: 20px;&quot;&gt; git pull or git rebase &lt;/font&gt;&lt;/pre&gt;" style="edgeLabel;html=1;align=center;verticalAlign=middle;resizable=0;points=[];fontFamily=Helvetica;fontSize=11;fontColor=default;labelBackgroundColor=default;" parent="0hkWVxESS4iukIDbZFaX-37" vertex="1" connectable="0">
          <mxGeometry x="0.0071" y="1" relative="1" as="geometry">
            <mxPoint x="-1" as="offset" />
          </mxGeometry>
        </mxCell>
        <mxCell id="0hkWVxESS4iukIDbZFaX-40" value="&lt;pre&gt;&lt;br&gt;&lt;/pre&gt;" style="html=1;verticalAlign=bottom;startArrow=oval;startFill=1;endArrow=block;startSize=8;curved=0;rounded=0;shadow=0;strokeColor=#99FFCC;align=center;fontFamily=Helvetica;fontSize=11;fontColor=default;labelBackgroundColor=default;edgeStyle=orthogonalEdgeStyle;flowAnimation=0;strokeWidth=5;" parent="1" edge="1">
          <mxGeometry x="0.0022" width="60" relative="1" as="geometry">
            <mxPoint x="760" y="660" as="sourcePoint" />
            <mxPoint x="545.4" y="660" as="targetPoint" />
            <mxPoint as="offset" />
          </mxGeometry>
        </mxCell>
        <mxCell id="0hkWVxESS4iukIDbZFaX-41" value="&lt;pre&gt;&lt;font style=&quot;font-size: 20px;&quot;&gt; git fetch &lt;/font&gt;&lt;/pre&gt;" style="edgeLabel;html=1;align=center;verticalAlign=middle;resizable=0;points=[];fontFamily=Helvetica;fontSize=11;fontColor=default;labelBackgroundColor=default;" parent="0hkWVxESS4iukIDbZFaX-40" vertex="1" connectable="0">
          <mxGeometry x="0.0071" y="1" relative="1" as="geometry">
            <mxPoint x="-1" as="offset" />
          </mxGeometry>
        </mxCell>
        <mxCell id="0hkWVxESS4iukIDbZFaX-42" value="&lt;pre&gt;&lt;br&gt;&lt;/pre&gt;" style="html=1;verticalAlign=bottom;startArrow=oval;startFill=1;endArrow=block;startSize=8;curved=0;rounded=0;shadow=0;strokeColor=#808080;align=center;fontFamily=Helvetica;fontSize=11;fontColor=default;labelBackgroundColor=default;edgeStyle=orthogonalEdgeStyle;flowAnimation=0;strokeWidth=5;" parent="1" edge="1">
          <mxGeometry x="0.0022" width="60" relative="1" as="geometry">
            <mxPoint x="540" y="740" as="sourcePoint" />
            <mxPoint x="117.4" y="740" as="targetPoint" />
            <mxPoint as="offset" />
          </mxGeometry>
        </mxCell>
        <mxCell id="0hkWVxESS4iukIDbZFaX-43" value="&lt;pre&gt;&lt;font style=&quot;font-size: 20px;&quot;&gt; git checkout HEAD &lt;/font&gt;&lt;/pre&gt;" style="edgeLabel;html=1;align=center;verticalAlign=middle;resizable=0;points=[];fontFamily=Helvetica;fontSize=11;fontColor=default;labelBackgroundColor=default;" parent="0hkWVxESS4iukIDbZFaX-42" vertex="1" connectable="0">
          <mxGeometry x="0.0071" y="1" relative="1" as="geometry">
            <mxPoint x="-1" as="offset" />
          </mxGeometry>
        </mxCell>
        <mxCell id="0hkWVxESS4iukIDbZFaX-44" value="&lt;pre&gt;&lt;br&gt;&lt;/pre&gt;" style="html=1;verticalAlign=bottom;startArrow=oval;startFill=1;endArrow=block;startSize=8;curved=0;rounded=0;shadow=0;strokeColor=#808080;align=center;fontFamily=Helvetica;fontSize=11;fontColor=default;labelBackgroundColor=default;edgeStyle=orthogonalEdgeStyle;flowAnimation=0;strokeWidth=5;" parent="1" edge="1">
          <mxGeometry x="0.0022" width="60" relative="1" as="geometry">
            <mxPoint x="330" y="820" as="sourcePoint" />
            <mxPoint x="117.4" y="820" as="targetPoint" />
            <mxPoint as="offset" />
          </mxGeometry>
        </mxCell>
        <mxCell id="0hkWVxESS4iukIDbZFaX-45" value="&lt;pre&gt;&lt;font style=&quot;font-size: 20px;&quot;&gt; git checkout &lt;/font&gt;&lt;/pre&gt;" style="edgeLabel;html=1;align=center;verticalAlign=middle;resizable=0;points=[];fontFamily=Helvetica;fontSize=11;fontColor=default;labelBackgroundColor=default;" parent="0hkWVxESS4iukIDbZFaX-44" vertex="1" connectable="0">
          <mxGeometry x="0.0071" y="1" relative="1" as="geometry">
            <mxPoint x="-1" as="offset" />
          </mxGeometry>
        </mxCell>
        <mxCell id="0hkWVxESS4iukIDbZFaX-47" value="&lt;font style=&quot;font-size: 20px;&quot;&gt;revert&lt;/font&gt;" style="text;html=1;align=center;verticalAlign=middle;resizable=0;points=[];autosize=1;strokeColor=none;fillColor=none;fontFamily=Helvetica;fontSize=11;fontColor=default;labelBackgroundColor=default;horizontal=0;" parent="1" vertex="1">
          <mxGeometry x="47.4" y="760" width="70" height="40" as="geometry" />
        </mxCell>
        <mxCell id="0hkWVxESS4iukIDbZFaX-56" value="&lt;font style=&quot;font-size: 20px;&quot;&gt;compare&lt;/font&gt;" style="text;html=1;align=center;verticalAlign=middle;resizable=0;points=[];autosize=1;strokeColor=none;fillColor=none;fontFamily=Helvetica;fontSize=11;fontColor=default;labelBackgroundColor=default;horizontal=0;" parent="1" vertex="1">
          <mxGeometry x="57.4" y="895" width="50" height="90" as="geometry" />
        </mxCell>
        <mxCell id="27pTSMQi8Gh_r-mLNvT4-9" value="" style="group" vertex="1" connectable="0" parent="1">
          <mxGeometry x="117.4" y="870" width="202.6" height="60" as="geometry" />
        </mxCell>
        <UserObject label="" id="0hkWVxESS4iukIDbZFaX-51">
          <mxCell style="edgeStyle=none;orthogonalLoop=1;jettySize=auto;html=1;endArrow=none;startArrow=block;rounded=0;shadow=0;strokeColor=#808080;align=center;verticalAlign=middle;fontFamily=Helvetica;fontSize=11;fontColor=default;labelBackgroundColor=default;flowAnimation=0;curved=0;strokeWidth=5;startFill=1;endFill=0;jumpStyle=none;" parent="27pTSMQi8Gh_r-mLNvT4-9" edge="1" target="27pTSMQi8Gh_r-mLNvT4-4">
            <mxGeometry width="100" relative="1" as="geometry">
              <mxPoint y="30" as="sourcePoint" />
              <mxPoint x="70.16450216450215" y="30" as="targetPoint" />
              <Array as="points" />
            </mxGeometry>
          </mxCell>
        </UserObject>
        <UserObject label="" id="27pTSMQi8Gh_r-mLNvT4-3">
          <mxCell style="edgeStyle=none;orthogonalLoop=1;jettySize=auto;html=1;endArrow=none;startArrow=block;endSize=8;startSize=8;rounded=0;shadow=0;strokeColor=#99FFFF;align=center;verticalAlign=middle;fontFamily=Helvetica;fontSize=11;fontColor=default;labelBackgroundColor=default;flowAnimation=0;curved=0;strokeWidth=5;startFill=1;endFill=0;jumpStyle=none;entryX=0.986;entryY=0.478;entryDx=0;entryDy=0;entryPerimeter=0;" edge="1" parent="27pTSMQi8Gh_r-mLNvT4-9" target="27pTSMQi8Gh_r-mLNvT4-4">
            <mxGeometry width="100" relative="1" as="geometry">
              <mxPoint x="202.6" y="28" as="sourcePoint" />
              <mxPoint x="157.87012987012986" y="28" as="targetPoint" />
              <Array as="points" />
            </mxGeometry>
          </mxCell>
        </UserObject>
        <mxCell id="27pTSMQi8Gh_r-mLNvT4-4" value="&lt;pre&gt;&lt;font style=&quot;font-size: 20px;&quot;&gt;git diff&lt;/font&gt;&lt;/pre&gt;" style="text;html=1;align=center;verticalAlign=middle;resizable=0;points=[];autosize=1;strokeColor=none;fillColor=none;fontFamily=Architects Daughter;fontSource=https%3A%2F%2Ffonts.googleapis.com%2Fcss%3Ffamily%3DArchitects%2BDaughter;gradientColor=none;" vertex="1" parent="27pTSMQi8Gh_r-mLNvT4-9">
          <mxGeometry x="48.676623376623375" width="120" height="60" as="geometry" />
        </mxCell>
        <mxCell id="27pTSMQi8Gh_r-mLNvT4-10" value="" style="group" vertex="1" connectable="0" parent="1">
          <mxGeometry x="330.4" y="870" width="219.6" height="60" as="geometry" />
        </mxCell>
        <UserObject label="" id="27pTSMQi8Gh_r-mLNvT4-11">
          <mxCell style="edgeStyle=none;orthogonalLoop=1;jettySize=auto;html=1;endArrow=none;startArrow=block;rounded=0;shadow=0;strokeColor=#99FFFF;align=center;verticalAlign=middle;fontFamily=Helvetica;fontSize=11;fontColor=default;labelBackgroundColor=default;flowAnimation=0;curved=0;strokeWidth=5;startFill=1;endFill=0;jumpStyle=none;" edge="1" parent="27pTSMQi8Gh_r-mLNvT4-10" target="27pTSMQi8Gh_r-mLNvT4-13">
            <mxGeometry width="100" relative="1" as="geometry">
              <mxPoint y="30" as="sourcePoint" />
              <mxPoint x="76.05194805194805" y="30" as="targetPoint" />
              <Array as="points" />
            </mxGeometry>
          </mxCell>
        </UserObject>
        <UserObject label="" id="27pTSMQi8Gh_r-mLNvT4-12">
          <mxCell style="edgeStyle=none;orthogonalLoop=1;jettySize=auto;html=1;endArrow=none;startArrow=block;endSize=8;startSize=8;rounded=0;shadow=0;strokeColor=#99FFCC;align=center;verticalAlign=middle;fontFamily=Helvetica;fontSize=11;fontColor=default;labelBackgroundColor=default;flowAnimation=0;curved=0;strokeWidth=5;startFill=1;endFill=0;jumpStyle=none;entryX=0.986;entryY=0.478;entryDx=0;entryDy=0;entryPerimeter=0;" edge="1" parent="27pTSMQi8Gh_r-mLNvT4-10" target="27pTSMQi8Gh_r-mLNvT4-13">
            <mxGeometry width="100" relative="1" as="geometry">
              <mxPoint x="219.6" y="28" as="sourcePoint" />
              <mxPoint x="171.11688311688312" y="28" as="targetPoint" />
              <Array as="points" />
            </mxGeometry>
          </mxCell>
        </UserObject>
        <mxCell id="27pTSMQi8Gh_r-mLNvT4-13" value="&lt;pre style=&quot;font-size: 14px;&quot;&gt;&lt;font style=&quot;font-size: 14px;&quot;&gt;git diff --cached&lt;/font&gt;&lt;/pre&gt;" style="text;html=1;align=center;verticalAlign=middle;resizable=0;points=[];autosize=1;strokeColor=none;fillColor=none;fontFamily=Architects Daughter;fontSource=https%3A%2F%2Ffonts.googleapis.com%2Fcss%3Ffamily%3DArchitects%2BDaughter;gradientColor=none;fontStyle=1;fontSize=14;" vertex="1" parent="27pTSMQi8Gh_r-mLNvT4-10">
          <mxGeometry x="28.994805194805195" width="170" height="60" as="geometry" />
        </mxCell>
        <mxCell id="27pTSMQi8Gh_r-mLNvT4-24" value="" style="group" vertex="1" connectable="0" parent="1">
          <mxGeometry x="640" y="416" width="47.40000000000001" height="48.80000000000001" as="geometry" />
        </mxCell>
        <mxCell id="27pTSMQi8Gh_r-mLNvT4-22" value="" style="shadow=0;dashed=0;html=1;strokeColor=none;fillColor=#4495D1;labelPosition=center;verticalLabelPosition=bottom;verticalAlign=top;align=center;outlineConnect=0;shape=mxgraph.veeam.2d.file_system_browser;" vertex="1" parent="27pTSMQi8Gh_r-mLNvT4-24">
          <mxGeometry y="4" width="44.8" height="44.8" as="geometry" />
        </mxCell>
        <mxCell id="27pTSMQi8Gh_r-mLNvT4-19" value="&lt;font color=&quot;#ffffff&quot;&gt;Local&amp;nbsp;&lt;/font&gt;" style="dashed=0;html=1;fillColor=none;strokeColor=none;align=center;rounded=1;arcSize=10;fontColor=#596780;fontStyle=1;fontSize=11;shadow=0" vertex="1" parent="27pTSMQi8Gh_r-mLNvT4-24">
          <mxGeometry x="1.4210854715202004e-14" width="47.4" height="20" as="geometry" />
        </mxCell>
        <mxCell id="kJBUjZroPzZevEXjZhLu-1" value="" style="group" vertex="1" connectable="0" parent="1">
          <mxGeometry x="713.4" y="20" width="100" height="1100" as="geometry" />
        </mxCell>
        <mxCell id="0hkWVxESS4iukIDbZFaX-6" value="" style="endArrow=none;html=1;rounded=0;strokeWidth=2;strokeColor=#808080;movable=1;resizable=1;rotatable=1;deletable=1;editable=1;locked=0;connectable=1;" parent="kJBUjZroPzZevEXjZhLu-1" edge="1">
          <mxGeometry width="50" height="50" relative="1" as="geometry">
            <mxPoint x="47.60000000000002" y="1100" as="sourcePoint" />
            <mxPoint x="51" as="targetPoint" />
          </mxGeometry>
        </mxCell>
        <mxCell id="0hkWVxESS4iukIDbZFaX-2" value="&lt;b&gt;&lt;font style=&quot;font-size: 17px;&quot;&gt;remote repository&lt;/font&gt;&lt;/b&gt;" style="shape=cylinder3;whiteSpace=wrap;html=1;boundedLbl=1;backgroundOutline=1;size=8.199981689453125;fillColor=#FFFF99;flipH=0;flipV=0;movable=1;resizable=1;rotatable=1;deletable=1;editable=1;locked=0;connectable=1;" parent="kJBUjZroPzZevEXjZhLu-1" vertex="1">
          <mxGeometry y="440" width="100" height="60" as="geometry" />
        </mxCell>
        <mxCell id="kJBUjZroPzZevEXjZhLu-2" value="" style="group" vertex="1" connectable="0" parent="1">
          <mxGeometry x="500" y="20" width="100" height="1100" as="geometry" />
        </mxCell>
        <mxCell id="0hkWVxESS4iukIDbZFaX-5" value="" style="endArrow=none;html=1;rounded=0;strokeWidth=2;strokeColor=#808080;movable=1;resizable=1;rotatable=1;deletable=1;editable=1;locked=0;connectable=1;" parent="kJBUjZroPzZevEXjZhLu-2" edge="1">
          <mxGeometry width="50" height="50" relative="1" as="geometry">
            <mxPoint x="46.60000000000002" y="1100" as="sourcePoint" />
            <mxPoint x="49" as="targetPoint" />
          </mxGeometry>
        </mxCell>
        <mxCell id="0hkWVxESS4iukIDbZFaX-3" value="&lt;b&gt;&lt;font style=&quot;font-size: 17px;&quot;&gt;local repository&lt;/font&gt;&lt;/b&gt;" style="shape=cylinder3;whiteSpace=wrap;html=1;boundedLbl=1;backgroundOutline=1;size=8.199981689453125;fillColor=#99FFCC;flipH=0;flipV=0;movable=1;resizable=1;rotatable=1;deletable=1;editable=1;locked=0;connectable=1;" parent="kJBUjZroPzZevEXjZhLu-2" vertex="1">
          <mxGeometry y="440" width="100" height="60" as="geometry" />
        </mxCell>
        <UserObject label="&lt;font style=&quot;font-size: 20px;&quot;&gt;git log&lt;/font&gt;" id="ZFvC5M6w4cuUYhDjQRLu-3">
          <mxCell style="text;whiteSpace=wrap;html=1;align=center;fillColor=default;" vertex="1" parent="kJBUjZroPzZevEXjZhLu-2">
            <mxGeometry x="10" y="80" width="70" height="40" as="geometry" />
          </mxCell>
        </UserObject>
        <mxCell id="kJBUjZroPzZevEXjZhLu-3" value="" style="group" vertex="1" connectable="0" parent="1">
          <mxGeometry x="286" y="20" width="100" height="1100" as="geometry" />
        </mxCell>
        <mxCell id="0hkWVxESS4iukIDbZFaX-7" value="" style="endArrow=none;html=1;rounded=0;strokeWidth=2;strokeColor=#808080;movable=1;resizable=1;rotatable=1;deletable=1;editable=1;locked=0;connectable=1;" parent="kJBUjZroPzZevEXjZhLu-3" edge="1">
          <mxGeometry width="50" height="50" relative="1" as="geometry">
            <mxPoint x="42.60000000000002" y="1100" as="sourcePoint" />
            <mxPoint x="45" as="targetPoint" />
          </mxGeometry>
        </mxCell>
        <mxCell id="0hkWVxESS4iukIDbZFaX-4" value="&lt;span style=&quot;font-size: 17px;&quot;&gt;&lt;b&gt;staging area&lt;/b&gt;&lt;/span&gt;" style="shape=cylinder3;whiteSpace=wrap;html=1;boundedLbl=1;backgroundOutline=1;size=8.199981689453125;fillColor=#99FFFF;flipH=0;flipV=0;movable=1;resizable=1;rotatable=1;deletable=1;editable=1;locked=0;connectable=1;" parent="kJBUjZroPzZevEXjZhLu-3" vertex="1">
          <mxGeometry y="440" width="100" height="60" as="geometry" />
        </mxCell>
        <mxCell id="kJBUjZroPzZevEXjZhLu-5" value="" style="group" vertex="1" connectable="0" parent="1">
          <mxGeometry x="72.4" y="20" width="100" height="1100" as="geometry" />
        </mxCell>
        <mxCell id="0hkWVxESS4iukIDbZFaX-8" value="" style="endArrow=none;html=1;rounded=0;strokeWidth=2;strokeColor=#808080;movable=1;resizable=1;rotatable=1;deletable=1;editable=1;locked=0;connectable=1;" parent="kJBUjZroPzZevEXjZhLu-5" edge="1">
          <mxGeometry width="50" height="50" relative="1" as="geometry">
            <mxPoint x="47.599999999999994" y="1100" as="sourcePoint" />
            <mxPoint x="50.599999999999994" as="targetPoint" />
          </mxGeometry>
        </mxCell>
        <mxCell id="0hkWVxESS4iukIDbZFaX-1" value="&lt;b&gt;&lt;font style=&quot;font-size: 17px;&quot;&gt;working directory&lt;/font&gt;&lt;/b&gt;" style="shape=cylinder3;whiteSpace=wrap;html=1;boundedLbl=1;backgroundOutline=1;size=8.199981689453125;fillColor=#E6E6E6;flipH=0;flipV=0;movable=1;resizable=1;rotatable=1;deletable=1;editable=1;locked=0;connectable=1;" parent="kJBUjZroPzZevEXjZhLu-5" vertex="1">
          <mxGeometry y="440" width="100" height="60" as="geometry" />
        </mxCell>
        <mxCell id="ZFvC5M6w4cuUYhDjQRLu-1" value="&lt;font style=&quot;font-size: 20px;&quot;&gt;git status&lt;/font&gt;" style="text;html=1;align=center;verticalAlign=middle;resizable=0;points=[];autosize=1;strokeColor=none;fillColor=default;" vertex="1" parent="kJBUjZroPzZevEXjZhLu-5">
          <mxGeometry x="-2.4000000000000057" y="80" width="100" height="40" as="geometry" />
        </mxCell>
        <mxCell id="27pTSMQi8Gh_r-mLNvT4-8" value="" style="group" vertex="1" connectable="0" parent="1">
          <mxGeometry x="117.4" y="960" width="422.6" height="40" as="geometry" />
        </mxCell>
        <mxCell id="0hkWVxESS4iukIDbZFaX-55" value="" style="edgeStyle=none;orthogonalLoop=1;jettySize=auto;html=1;endArrow=none;startArrow=block;endSize=8;startSize=8;rounded=0;shadow=0;strokeColor=#808080;align=center;verticalAlign=middle;fontFamily=Helvetica;fontSize=11;fontColor=default;labelBackgroundColor=default;flowAnimation=0;curved=1;strokeWidth=5;startFill=1;endFill=0;" parent="27pTSMQi8Gh_r-mLNvT4-8" edge="1" target="27pTSMQi8Gh_r-mLNvT4-6">
          <mxGeometry width="100" relative="1" as="geometry">
            <mxPoint y="19" as="sourcePoint" />
            <mxPoint x="128.617391304348" y="19" as="targetPoint" />
            <Array as="points" />
          </mxGeometry>
        </mxCell>
        <mxCell id="27pTSMQi8Gh_r-mLNvT4-6" value="&lt;span style=&quot;font-family: Helvetica; font-size: 20px; background-color: rgb(255, 255, 255);&quot;&gt;&amp;nbsp;git&amp;nbsp;diff HEAD&amp;nbsp;&lt;/span&gt;" style="text;html=1;align=center;verticalAlign=middle;resizable=0;points=[];autosize=1;strokeColor=none;fillColor=default;fontFamily=Architects Daughter;fontSource=https%3A%2F%2Ffonts.googleapis.com%2Fcss%3Ffamily%3DArchitects%2BDaughter;flipH=0;flipV=1;" vertex="1" parent="27pTSMQi8Gh_r-mLNvT4-8">
          <mxGeometry x="146.99130434782623" width="150" height="40" as="geometry" />
        </mxCell>
        <UserObject label="" id="27pTSMQi8Gh_r-mLNvT4-7">
          <mxCell style="edgeStyle=none;orthogonalLoop=1;jettySize=auto;html=1;endArrow=none;startArrow=block;endSize=8;startSize=8;rounded=0;shadow=0;strokeColor=#99FFCC;align=center;verticalAlign=middle;fontFamily=Helvetica;fontSize=11;fontColor=default;labelBackgroundColor=default;flowAnimation=0;curved=0;strokeWidth=5;startFill=1;endFill=0;jumpStyle=none;" edge="1" parent="27pTSMQi8Gh_r-mLNvT4-8" target="27pTSMQi8Gh_r-mLNvT4-6">
            <mxGeometry width="100" relative="1" as="geometry">
              <mxPoint x="422.6" y="19" as="sourcePoint" />
              <mxPoint x="312.3565217391305" y="19" as="targetPoint" />
              <Array as="points" />
            </mxGeometry>
          </mxCell>
        </UserObject>
        <mxCell id="27pTSMQi8Gh_r-mLNvT4-42" value="File status" parent="0" />
      </root>
    </mxGraphModel>
  </diagram>
  <diagram id="48pv1piM8zrW4aCiMmBJ" name="4 files statuses">
    <mxGraphModel dx="1202" dy="542" grid="1" gridSize="10" guides="1" tooltips="1" connect="1" arrows="1" fold="1" page="1" pageScale="1" pageWidth="1169" pageHeight="827" math="0" shadow="0">
      <root>
        <mxCell id="0" />
        <mxCell id="1" parent="0" />
        <mxCell id="MZME8LE3W0G9AgC13R30-1" value="" style="edgeStyle=orthogonalEdgeStyle;rounded=0;orthogonalLoop=1;jettySize=auto;html=1;curved=1;" edge="1" parent="1" source="MZME8LE3W0G9AgC13R30-3" target="MZME8LE3W0G9AgC13R30-6">
          <mxGeometry relative="1" as="geometry">
            <Array as="points">
              <mxPoint x="299" y="304" />
              <mxPoint x="489" y="304" />
            </Array>
          </mxGeometry>
        </mxCell>
        <mxCell id="MZME8LE3W0G9AgC13R30-2" value="&lt;font style=&quot;font-size: 20px;&quot;&gt;add file&lt;/font&gt;" style="edgeLabel;html=1;align=center;verticalAlign=middle;resizable=0;points=[];" vertex="1" connectable="0" parent="MZME8LE3W0G9AgC13R30-1">
          <mxGeometry x="0.0023" y="-1" relative="1" as="geometry">
            <mxPoint as="offset" />
          </mxGeometry>
        </mxCell>
        <mxCell id="MZME8LE3W0G9AgC13R30-3" value="&lt;font style=&quot;font-size: 20px; background-color: rgb(153, 255, 204);&quot;&gt;untracked&lt;/font&gt;" style="sketch=0;aspect=fixed;pointerEvents=1;shadow=0;dashed=0;html=1;strokeColor=none;labelPosition=center;verticalLabelPosition=bottom;verticalAlign=top;align=center;shape=mxgraph.azure.rdp_remoting_file;fillColor=#0078D7;flipH=0;" vertex="1" parent="1">
          <mxGeometry x="275" y="374" width="48" height="50" as="geometry" />
        </mxCell>
        <mxCell id="MZME8LE3W0G9AgC13R30-4" value="" style="edgeStyle=orthogonalEdgeStyle;rounded=0;orthogonalLoop=1;jettySize=auto;html=1;curved=1;exitX=0.9;exitY=0.1;exitDx=0;exitDy=0;exitPerimeter=0;" edge="1" parent="1" source="MZME8LE3W0G9AgC13R30-6" target="MZME8LE3W0G9AgC13R30-9">
          <mxGeometry relative="1" as="geometry">
            <Array as="points">
              <mxPoint x="508" y="294" />
              <mxPoint x="679" y="294" />
            </Array>
          </mxGeometry>
        </mxCell>
        <mxCell id="MZME8LE3W0G9AgC13R30-5" value="&lt;font style=&quot;font-size: 20px;&quot;&gt;edit file&lt;/font&gt;" style="edgeLabel;html=1;align=center;verticalAlign=middle;resizable=0;points=[];" vertex="1" connectable="0" parent="MZME8LE3W0G9AgC13R30-4">
          <mxGeometry x="0.0056" y="4" relative="1" as="geometry">
            <mxPoint as="offset" />
          </mxGeometry>
        </mxCell>
        <mxCell id="MZME8LE3W0G9AgC13R30-6" value="&lt;font style=&quot;font-size: 20px;&quot;&gt;unmodified&lt;/font&gt;" style="sketch=0;aspect=fixed;pointerEvents=1;shadow=0;dashed=0;html=1;strokeColor=none;labelPosition=center;verticalLabelPosition=bottom;verticalAlign=top;align=center;shape=mxgraph.azure.rdp_remoting_file;fillColor=#0078D7;flipH=0;" vertex="1" parent="1">
          <mxGeometry x="465" y="374" width="48" height="50" as="geometry" />
        </mxCell>
        <mxCell id="MZME8LE3W0G9AgC13R30-7" value="" style="edgeStyle=orthogonalEdgeStyle;rounded=0;orthogonalLoop=1;jettySize=auto;html=1;curved=1;exitX=0.9;exitY=0.1;exitDx=0;exitDy=0;exitPerimeter=0;" edge="1" parent="1" source="MZME8LE3W0G9AgC13R30-9" target="MZME8LE3W0G9AgC13R30-12">
          <mxGeometry relative="1" as="geometry">
            <Array as="points">
              <mxPoint x="698" y="294" />
              <mxPoint x="869" y="294" />
            </Array>
          </mxGeometry>
        </mxCell>
        <mxCell id="MZME8LE3W0G9AgC13R30-8" value="&lt;font style=&quot;font-size: 20px;&quot;&gt;stage file&lt;/font&gt;" style="edgeLabel;html=1;align=center;verticalAlign=middle;resizable=0;points=[];" vertex="1" connectable="0" parent="MZME8LE3W0G9AgC13R30-7">
          <mxGeometry x="-0.0789" y="3" relative="1" as="geometry">
            <mxPoint as="offset" />
          </mxGeometry>
        </mxCell>
        <mxCell id="MZME8LE3W0G9AgC13R30-9" value="&lt;font style=&quot;font-size: 20px;&quot;&gt;modified&lt;/font&gt;" style="sketch=0;aspect=fixed;pointerEvents=1;shadow=0;dashed=0;html=1;strokeColor=none;labelPosition=center;verticalLabelPosition=bottom;verticalAlign=top;align=center;shape=mxgraph.azure.rdp_remoting_file;fillColor=#0078D7;flipH=0;" vertex="1" parent="1">
          <mxGeometry x="655" y="374" width="48" height="50" as="geometry" />
        </mxCell>
        <mxCell id="MZME8LE3W0G9AgC13R30-10" style="edgeStyle=orthogonalEdgeStyle;rounded=0;orthogonalLoop=1;jettySize=auto;html=1;exitX=0.5;exitY=1;exitDx=0;exitDy=0;exitPerimeter=0;curved=1;entryX=0.96;entryY=0.96;entryDx=0;entryDy=0;entryPerimeter=0;strokeWidth=1;" edge="1" parent="1" source="MZME8LE3W0G9AgC13R30-12" target="MZME8LE3W0G9AgC13R30-6">
          <mxGeometry relative="1" as="geometry">
            <mxPoint x="485" y="424" as="targetPoint" />
            <Array as="points">
              <mxPoint x="869" y="534.03" />
              <mxPoint x="511" y="534.03" />
            </Array>
          </mxGeometry>
        </mxCell>
        <mxCell id="MZME8LE3W0G9AgC13R30-11" value="&lt;font style=&quot;font-size: 20px;&quot;&gt;commit&lt;/font&gt;" style="edgeLabel;html=1;align=center;verticalAlign=middle;resizable=0;points=[];" vertex="1" connectable="0" parent="MZME8LE3W0G9AgC13R30-10">
          <mxGeometry x="-0.0015" relative="1" as="geometry">
            <mxPoint as="offset" />
          </mxGeometry>
        </mxCell>
        <mxCell id="MZME8LE3W0G9AgC13R30-12" value="&lt;font style=&quot;font-size: 20px;&quot;&gt;staged&lt;/font&gt;" style="sketch=0;aspect=fixed;pointerEvents=1;shadow=0;dashed=0;html=1;strokeColor=none;labelPosition=center;verticalLabelPosition=bottom;verticalAlign=top;align=center;shape=mxgraph.azure.rdp_remoting_file;fillColor=#0078D7;flipH=0;" vertex="1" parent="1">
          <mxGeometry x="845" y="374" width="48" height="50" as="geometry" />
        </mxCell>
        <mxCell id="MZME8LE3W0G9AgC13R30-13" style="edgeStyle=orthogonalEdgeStyle;rounded=0;orthogonalLoop=1;jettySize=auto;html=1;exitX=0.5;exitY=1;exitDx=0;exitDy=0;exitPerimeter=0;entryX=0.5;entryY=1;entryDx=0;entryDy=0;entryPerimeter=0;curved=1;" edge="1" parent="1" source="MZME8LE3W0G9AgC13R30-6" target="MZME8LE3W0G9AgC13R30-3">
          <mxGeometry relative="1" as="geometry">
            <Array as="points">
              <mxPoint x="489" y="534.03" />
              <mxPoint x="299" y="534.03" />
            </Array>
          </mxGeometry>
        </mxCell>
        <mxCell id="MZME8LE3W0G9AgC13R30-14" value="&lt;font style=&quot;font-size: 20px;&quot;&gt;remove file&lt;/font&gt;" style="edgeLabel;html=1;align=center;verticalAlign=middle;resizable=0;points=[];" vertex="1" connectable="0" parent="MZME8LE3W0G9AgC13R30-13">
          <mxGeometry x="0.0185" y="-2" relative="1" as="geometry">
            <mxPoint as="offset" />
          </mxGeometry>
        </mxCell>
      </root>
    </mxGraphModel>
  </diagram>
  <diagram id="MjuzoO2JLiGAHE04lup4" name="git diff">
    <mxGraphModel dx="1262" dy="569" grid="1" gridSize="10" guides="1" tooltips="1" connect="1" arrows="1" fold="1" page="1" pageScale="1" pageWidth="827" pageHeight="1169" math="0" shadow="0">
      <root>
        <mxCell id="0" />
        <mxCell id="1" parent="0" />
      </root>
    </mxGraphModel>
  </diagram>
</mxfile>
